# xmcd
#
# Track frame offsets:
#	150
#	16017
#	30457
#	43523
#	56055
#	71510
#	83587
#	98580
#	112353
#	128778
#	142694
#	155887
#
# Disc length: 2203 seconds
#
# Revision: 0
# Processed by: cddbd v1.5.1PL0 Copyright (c) Steve Scherf et al.
# Submitted via: dBpowerAMP V4.0
#
DISCID=9508990c
DTITLE=Justin Trevino - Too Many Heartaches
DYEAR=2004
DGENRE=Country
TTITLE0=Texas Honky Tonk
TTITLE1=Stranger In Our Home
TTITLE2=Five Minutes Of The Latest Blues
TTITLE3=Tonight She Hits The Honky Tonks Again
TTITLE4=I Turn To The Wine
TTITLE5=The End
TTITLE6=Love Is No Excuse (duet with Pretty Miss Norma Jean)
TTITLE7=Too Many Heartaches
TTITLE8=Forbidden Love
TTITLE9=Don't leave The Leaving Up To Me
TTITLE10=Face To The Wall
TTITLE11=Honky Tonk Atmosphere
EXTD=
EXTT0=
EXTT1=
EXTT2=
EXTT3=
EXTT4=
EXTT5=
EXTT6=
EXTT7=
EXTT8=
EXTT9=
EXTT10=
EXTT11=
PLAYORDER=
